<svg aria-hidden="true" style="width:0;height:0;position:absolute;overflow:hidden" xmlns="http://www.w3.org/2000/svg"><defs><symbol id="icon-menu-burger" viewBox="0 0 32 32"><path fill="#111321" stroke-linejoin="round" stroke-linecap="round" stroke-width="2.667" d="M4 16h24M4 8h24M4 24h24"/></symbol><symbol id="icon-menu-close" viewBox="0 0 32 32"><path fill="#111321" stroke-linejoin="round" stroke-linecap="round" stroke-width="2.667" d="M24 8 8 24M8 8l16 16"/></symbol><symbol id="icon-search" viewBox="0 0 32 32"><path d="M13.464 23.726c2.277 0 4.489-.763 6.283-2.165l5.64 5.64 1.814-1.814-5.64-5.64a10.202 10.202 0 0 0 2.167-6.284c0-5.659-4.604-10.263-10.264-10.263S3.2 7.804 3.2 13.463s4.604 10.263 10.264 10.263zm0-17.96c4.245 0 7.698 3.452 7.698 7.697s-3.452 7.697-7.698 7.697c-4.245 0-7.698-3.452-7.698-7.697s3.452-7.697 7.698-7.697z"/></symbol><symbol id="icon-News" viewBox="0 0 104 32"><path d="M1.145 30.316V1.213h4.931l13.501 20.514V1.213h4.931v29.103h-4.931L6.076 9.802v20.514H1.145zm38.937.606c-2.21 0-4.15-.478-5.821-1.435s-2.978-2.284-3.921-3.981c-.93-1.698-1.395-3.651-1.395-5.861 0-2.385.458-4.453 1.374-6.205.916-1.765 2.189-3.133 3.82-4.103s3.517-1.455 5.659-1.455c2.264 0 4.184.532 5.76 1.597 1.59 1.051 2.769 2.54 3.537 4.467s1.058 4.197.869 6.811h-4.83v-1.779c-.013-2.371-.431-4.103-1.253-5.194s-2.115-1.637-3.88-1.637c-1.994 0-3.476.62-4.446 1.859-.97 1.226-1.455 3.025-1.455 5.396 0 2.21.485 3.921 1.455 5.133s2.385 1.819 4.244 1.819c1.199 0 2.23-.263 3.092-.788.876-.539 1.549-1.314 2.021-2.324l4.81 1.455c-.835 1.967-2.129 3.496-3.88 4.588-1.738 1.091-3.658 1.637-5.76 1.637zm-7.518-10.166v-3.678H47.58v3.678H32.564zm25.769 9.56L51.664 8.448l4.77.04 4.264 14.006 4.325-14.006h4.103l4.305 14.006 4.285-14.006h4.77l-6.669 21.827h-3.8l-4.952-15.016-4.931 15.016h-3.8zm35.437.606c-2.695 0-4.884-.606-6.568-1.819s-2.708-2.917-3.072-5.113l4.972-.768c.256 1.078.822 1.927 1.698 2.547s1.981.93 3.315.93c1.172 0 2.075-.229 2.708-.687.647-.472.97-1.112.97-1.92 0-.499-.121-.896-.364-1.192-.229-.31-.741-.606-1.536-.889s-2.014-.64-3.658-1.071c-1.832-.485-3.288-1.004-4.365-1.556-1.078-.566-1.853-1.233-2.324-2.001s-.707-1.698-.707-2.789c0-1.361.357-2.547 1.071-3.557s1.711-1.785 2.991-2.324c1.28-.552 2.789-.829 4.527-.829 1.698 0 3.2.263 4.507.788 1.32.525 2.385 1.273 3.193 2.243s1.307 2.109 1.496 3.416l-4.972.889c-.121-.93-.546-1.664-1.273-2.203-.714-.539-1.671-.842-2.87-.909-1.145-.067-2.068.108-2.769.525-.701.404-1.051.977-1.051 1.718 0 .418.141.775.424 1.071s.849.593 1.698.889c.862.296 2.142.66 3.84 1.091 1.738.445 3.126.957 4.163 1.536 1.051.566 1.805 1.246 2.264 2.041.472.795.707 1.758.707 2.89 0 2.196-.802 3.921-2.405 5.174-1.59 1.253-3.793 1.88-6.609 1.88z"/></symbol><symbol id="icon-heart-transparent" viewBox="0 0 32 32"><path fill="none" stroke="#4440f7" style="stroke:var(--color1,#4440f7)" stroke-linejoin="round" stroke-linecap="round" stroke-width="2" d="M9.331 4C5.65 4 2.664 6.955 2.664 10.6c0 2.943 1.167 9.927 12.651 16.987a1.316 1.316 0 0 0 1.366 0c11.484-7.06 12.651-14.044 12.651-16.987 0-3.645-2.985-6.6-6.667-6.6s-6.667 4-6.667 4-2.985-4-6.667-4z"/></symbol><symbol id="icon-heart-filled" viewBox="0 0 32 32"><path fill="#4b48da" style="fill:var(--color1,#4b48da)" d="M9.331 4C5.65 4 2.664 6.955 2.664 10.6c0 2.943 1.167 9.927 12.651 16.987a1.316 1.316 0 0 0 1.366 0c11.484-7.06 12.651-14.044 12.651-16.987 0-3.645-2.985-6.6-6.667-6.6s-6.667 4-6.667 4-2.985-4-6.667-4z"/></symbol><symbol id="icon-home" viewBox="0 0 32 32"><path fill="#4440f6" style="fill:var(--color1,#4440f6)" d="M32 16c0 8.837-7.163 16-16 16S0 24.837 0 16 7.163 0 16 0s16 7.163 16 16z"/><path fill="none" stroke="#f4f4f4" style="stroke:var(--color1,#f4f4f4)" d="M31.5 16c0 8.56-6.94 15.5-15.5 15.5S.5 24.56.5 16C.5 7.44 7.44.5 16 .5S31.5 7.44 31.5 16z"/><path fill="none" stroke="#f4f4f4" style="stroke:var(--color1,#f4f4f4)" stroke-linejoin="round" stroke-linecap="round" d="M9.25 13.75 16 8.5l6.75 5.25V22a1.503 1.503 0 0 1-1.5 1.5h-10.5a1.503 1.503 0 0 1-1.5-1.5v-8.25z"/><path fill="none" stroke="#f4f4f4" style="stroke:var(--color1,#f4f4f4)" stroke-linejoin="round" stroke-linecap="round" d="M13.75 23.5V16h4.5v7.5"/></symbol><symbol id="icon-read" viewBox="0 0 32 32"><path fill="#4440f6" style="fill:var(--color1,#4440f6)" d="M32 16c0 8.837-7.163 16-16 16S0 24.837 0 16 7.163 0 16 0s16 7.163 16 16z"/><path fill="none" stroke="#f4f4f4" style="stroke:var(--color2,#f4f4f4)" stroke-linejoin="round" stroke-linecap="round" d="M8.5 9.25H13a3.004 3.004 0 0 1 3 3v10.5a2.25 2.25 0 0 0-2.25-2.25H8.5V9.25z"/><path fill="none" stroke="#f4f4f4" style="stroke:var(--color1,#f4f4f4)" d="M31.5 16c0 8.56-6.94 15.5-15.5 15.5S.5 24.56.5 16C.5 7.44 7.44.5 16 .5S31.5 7.44 31.5 16z"/><path fill="none" stroke="#f4f4f4" style="stroke:var(--color2,#f4f4f4)" stroke-linejoin="round" stroke-linecap="round" d="M23.5 9.25H19a3.004 3.004 0 0 0-3 3v10.5a2.25 2.25 0 0 1 2.25-2.25h5.25V9.25z"/></symbol><symbol id="icon-heart-menu" viewBox="0 0 32 32"><path fill="#4440f6" style="fill:var(--color1,#4440f6)" d="M32 16c0 8.837-7.163 16-16 16S0 24.837 0 16 7.163 0 16 0s16 7.163 16 16z"/><path fill="none" stroke="#f4f4f4" style="stroke:var(--color1,#f4f4f4)" d="M31.5 16c0 8.56-6.94 15.5-15.5 15.5S.5 24.56.5 16C.5 7.44 7.44.5 16 .5S31.5 7.44 31.5 16z"/><path fill="none" stroke="#f4f4f4" style="stroke:var(--color2,#f4f4f4)" stroke-linejoin="round" stroke-linecap="round" d="M22.631 10.457a4.111 4.111 0 0 0-4.496-.895 4.09 4.09 0 0 0-1.338.895l-.795.795-.795-.795a4.125 4.125 0 0 0-5.836 0 4.125 4.125 0 0 0 0 5.836l6.63 6.63 6.63-6.63a4.111 4.111 0 0 0 .895-4.496 4.116 4.116 0 0 0-.895-1.338v0z"/></symbol><symbol id="icon-sun" viewBox="0 0 32 32"><path fill="none" stroke-linejoin="round" stroke-linecap="round" stroke-width="2.286" d="M15.999 1.778v2.586m0 23.272v2.586M5.94 5.941l1.836 1.836m16.446 16.446 1.836 1.836M1.777 16h2.586m23.272 0h2.586M5.94 26.059l1.836-1.836M24.222 7.777l1.836-1.836M22.464 16a6.465 6.465 0 1 1-12.93 0 6.465 6.465 0 0 1 12.93 0z"/></symbol><symbol id="icon-themeSwitcher-light" viewBox="0 0 61 32"><path fill="#fff" style="fill:var(--color1,#fff)" d="M15.238 1.223h30.476c8.161 0 14.777 6.616 14.777 14.777s-6.616 14.777-14.777 14.777H15.238C7.077 30.777.461 24.161.461 16S7.077 1.223 15.238 1.223z"/><path fill="#4b48db" style="fill:var(--color2,#4b48db)" d="M25.905 16c0 6.733-5.458 12.19-12.19 12.19S1.525 22.732 1.525 16c0-6.733 5.458-12.19 12.19-12.19S25.905 9.268 25.905 16z"/><path fill="none" stroke="#4b48db" style="stroke:var(--color2,#4b48db)" stroke-width=".921" d="M15.238 1.223h30.476c8.161 0 14.777 6.616 14.777 14.777s-6.616 14.777-14.777 14.777H15.238C7.077 30.777.461 24.161.461 16S7.077 1.223 15.238 1.223z"/></symbol><symbol id="icon-moon" viewBox="0 0 32 32"><path fill="none" stroke-linejoin="round" stroke-linecap="round" stroke-width="2.286" d="M28 17.053a11.994 11.994 0 0 1-7.873 10.182A12.003 12.003 0 0 1 4.338 18.56 12.002 12.002 0 0 1 14.946 3.999 9.335 9.335 0 0 0 28 17.053z"/></symbol><symbol id="icon-themeSwitcher-dark" viewBox="0 0 61 32"><path fill="#4b48db" style="fill:var(--color1,#4b48db)" d="M15.238 1.524h30.476C53.709 1.524 60.19 8.005 60.19 16s-6.481 14.476-14.476 14.476H15.238C7.243 30.476.762 23.995.762 16S7.243 1.524 15.238 1.524z"/><path fill="#fff" style="fill:var(--color2,#fff)" d="M57.905 16c0 6.733-5.458 12.19-12.19 12.19S33.525 22.732 33.525 16c0-6.733 5.458-12.19 12.19-12.19S57.905 9.268 57.905 16z"/><path fill="none" stroke="#fff" style="stroke:var(--color2,#fff)" stroke-width="1.524" d="M15.238 1.524h30.476C53.709 1.524 60.19 8.005 60.19 16s-6.481 14.476-14.476 14.476H15.238C7.243 30.476.762 23.995.762 16S7.243 1.524 15.238 1.524z"/></symbol><symbol id="icon-pagination-previous" viewBox="0 0 32 32"><path d="m14.437 16 6.6 6.6-1.885 1.885L10.667 16l8.485-8.485L21.037 9.4l-6.6 6.6z"/></symbol><symbol id="icon-pagination-next" viewBox="0 0 32 32"><path d="m16.001 16-3.556-3.555 1.777-1.779 5.334 5.333-5.334 5.333-1.777-1.779 3.556-3.555z"/></symbol><symbol id="icon-read-closed" viewBox="0 0 50 32"><path d="M5.849 0 0 6.089 24.889 32 49.778 6.089 43.929 0l-19.04 19.779L5.849 0z"/></symbol><symbol id="icon-read-opened" viewBox="0 0 53 32"><path d="M8.759 32 2.91 25.911 27.799 0l24.889 25.911L46.839 32l-19.04-19.779L8.759 32z"/></symbol><symbol id="icon-mobileMenu-rightArrow" viewBox="0 0 32 32"><path fill="none" stroke-linejoin="round" stroke-linecap="round" stroke-width="2.667" d="m12 24 8-8-8-8"/></symbol><symbol id="icon-categoriesList-closed" viewBox="0 0 32 32"><path d="M4.576 5.333 1.067 8.58 16 22.399 30.933 8.58l-3.509-3.248L16 15.881 4.576 5.332z"/></symbol><symbol id="icon-categoriesList-opened" viewBox="0 0 30 32"><path d="M3.509 22.4 0 19.153 14.933 5.334l14.933 13.819-3.509 3.247-11.424-10.549L3.509 22.4z"/></symbol><symbol id="icon-calendarArrow-opened" viewBox="0 0 53 32"><path fill="#a2a2a2" style="fill:var(--color1,#a2a2a2)" d="M6.267 0 0 6.089 26.667 32 53.334 6.089 47.067 0l-20.4 19.779L6.267 0z"/></symbol><symbol id="icon-calendarArrow-closed" viewBox="0 0 53 32"><path fill="#fff" style="fill:var(--color1,#fff)" d="M6.267 32 0 25.911 26.667 0l26.667 25.911L47.067 32l-20.4-19.779L6.267 32z"/></symbol><symbol id="icon-alreadyRead-mark" viewBox="0 0 32 32"><path fill="#00dd73" style="fill:var(--color1,#00dd73)" d="M28.78 6.39c-.277.008-.54.124-.733.323L11.734 23.026l-6.713-6.713a1.065 1.065 0 1 0-1.508 1.507l7.467 7.467a1.066 1.066 0 0 0 1.508 0L29.555 8.22a1.072 1.072 0 0 0 .239-1.18 1.066 1.066 0 0 0-1.013-.65z"/></symbol><symbol id="icon-calendar" viewBox="0 0 32 32"><path d="M22.667 4H28a1.335 1.335 0 0 1 1.334 1.334v21.333A1.33 1.33 0 0 1 28 28H4a1.333 1.333 0 0 1-1.334-1.333V5.334A1.335 1.335 0 0 1 4 4h5.333V1.333H12V4h8V1.333h2.667V4zm4 10.667H5.334v10.667h21.333V14.667zm-6.667-8h-8v2.667H9.333V6.667h-4V12h21.333V6.667h-4v2.667h-2.667V6.667zM8.001 17.333h2.667V20H8.001v-2.667zm6.666 0h2.667V20h-2.667v-2.667zm6.667 0h2.667V20h-2.667v-2.667z"/></symbol><symbol id="icon-calendar-prev" viewBox="0 0 16 32"><path fill="#4440f6" style="fill:var(--color2,#4440f6)" d="M0 16c0 .596.204 1.107.642 1.55l12.192 12.982c.345.375.784.579 1.301.579 1.034 0 1.865-.886 1.865-2.027 0-.562-.219-1.056-.564-1.448L4.451 16 15.436 4.364c.345-.392.564-.903.564-1.448 0-1.141-.831-2.027-1.865-2.027-.517 0-.956.204-1.301.579L.642 14.433C.203 14.893 0 15.404 0 16z"/></symbol><symbol id="icon-calendar-next" viewBox="0 0 16 32"><path fill="#4440f6" style="fill:var(--color2,#4440f6)" d="M16 16a2.309 2.309 0 0 0-.643-1.567L3.165 1.468c-.36-.375-.784-.579-1.301-.579-1.05 0-1.865.886-1.865 2.027 0 .545.204 1.056.564 1.448L11.533 16 .563 27.636a2.1 2.1 0 0 0-.564 1.448c0 1.142.815 2.027 1.865 2.027.501 0 .94-.204 1.301-.579L15.357 17.55c.439-.443.642-.954.642-1.55z"/></symbol><symbol id="icon-month-forward" viewBox="0 0 19 32"><path fill="#4440f6" style="fill:var(--color1,#4440f6)" d="M18.667 16c0-.764-.266-1.385-.886-1.971L4.197.71C3.737.231 3.17 0 2.479 0A2.474 2.474 0 0 0 0 2.468c0 .675.283 1.296.779 1.794l12.043 11.72L.779 27.738A2.462 2.462 0 0 0 0 29.532 2.475 2.475 0 0 0 2.479 32c.673 0 1.257-.231 1.718-.71l13.584-13.318c.62-.586.886-1.225.886-1.971z"/></symbol></defs></svg>