<svg aria-hidden="true" style="position: absolute; width: 0; height: 0; overflow: hidden;" version="1.1" xmlns="http://www.w3.org/2000/svg" xmlns:xlink="http://www.w3.org/1999/xlink">
<defs>
<symbol id="icon-menu-burger" viewBox="0 0 32 32">
<path fill="#111321" stroke="#111321" style="stroke: var(--color1, #111321)" stroke-linejoin="round" stroke-linecap="round" stroke-miterlimit="4" stroke-width="2.6667" d="M4 16h24"></path>
<path fill="#111321" stroke="#111321" style="stroke: var(--color1, #111321)" stroke-linejoin="round" stroke-linecap="round" stroke-miterlimit="4" stroke-width="2.6667" d="M4 8h24"></path>
<path fill="#111321" stroke="#111321" style="stroke: var(--color1, #111321)" stroke-linejoin="round" stroke-linecap="round" stroke-miterlimit="4" stroke-width="2.6667" d="M4 24h24"></path>
</symbol>
<symbol id="icon-menu-close" viewBox="0 0 32 32">
<path fill="#111321" stroke="#111321" style="stroke: var(--color1, #111321)" stroke-linejoin="round" stroke-linecap="round" stroke-miterlimit="4" stroke-width="2.6667" d="M24 8l-16 16"></path>
<path fill="#111321" stroke="#111321" style="stroke: var(--color1, #111321)" stroke-linejoin="round" stroke-linecap="round" stroke-miterlimit="4" stroke-width="2.6667" d="M8 8l16 16"></path>
</symbol>
<symbol id="icon-search" viewBox="0 0 32 32">
<path d="M13.464 23.726c2.277-0 4.489-0.763 6.283-2.165l5.64 5.64 1.814-1.814-5.64-5.64c1.404-1.794 2.166-4.006 2.167-6.284 0-5.659-4.604-10.263-10.264-10.263s-10.264 4.604-10.264 10.263 4.604 10.263 10.264 10.263zM13.464 5.766c4.245 0 7.698 3.452 7.698 7.697s-3.452 7.697-7.698 7.697c-4.245 0-7.698-3.452-7.698-7.697s3.452-7.697 7.698-7.697z"></path>
</symbol>
<symbol id="icon-News" viewBox="0 0 104 32">
<path d="M1.145 30.316v-29.103h4.931l13.501 20.514v-20.514h4.931v29.103h-4.931l-13.501-20.514v20.514h-4.931zM40.082 30.922c-2.21 0-4.15-0.478-5.821-1.435s-2.978-2.284-3.921-3.981c-0.93-1.698-1.395-3.651-1.395-5.861 0-2.385 0.458-4.453 1.374-6.205 0.916-1.765 2.189-3.133 3.82-4.103s3.517-1.455 5.659-1.455c2.264 0 4.184 0.532 5.76 1.597 1.59 1.051 2.769 2.54 3.537 4.467s1.058 4.197 0.869 6.811h-4.83v-1.779c-0.013-2.371-0.431-4.103-1.253-5.194s-2.115-1.637-3.88-1.637c-1.994 0-3.476 0.62-4.446 1.859-0.97 1.226-1.455 3.025-1.455 5.396 0 2.21 0.485 3.921 1.455 5.133s2.385 1.819 4.244 1.819c1.199 0 2.23-0.263 3.092-0.788 0.876-0.539 1.549-1.314 2.021-2.324l4.81 1.455c-0.835 1.967-2.129 3.496-3.88 4.588-1.738 1.091-3.658 1.637-5.76 1.637zM32.564 20.756v-3.678h15.016v3.678h-15.016zM58.333 30.316l-6.669-21.868 4.77 0.040 4.264 14.006 4.325-14.006h4.103l4.305 14.006 4.285-14.006h4.77l-6.669 21.827h-3.8l-4.952-15.016-4.931 15.016h-3.8zM93.77 30.922c-2.695 0-4.884-0.606-6.568-1.819s-2.708-2.917-3.072-5.113l4.972-0.768c0.256 1.078 0.822 1.927 1.698 2.547s1.981 0.93 3.315 0.93c1.172 0 2.075-0.229 2.708-0.687 0.647-0.472 0.97-1.112 0.97-1.92 0-0.499-0.121-0.896-0.364-1.192-0.229-0.31-0.741-0.606-1.536-0.889s-2.014-0.64-3.658-1.071c-1.832-0.485-3.288-1.004-4.365-1.556-1.078-0.566-1.853-1.233-2.324-2.001s-0.707-1.698-0.707-2.789c0-1.361 0.357-2.547 1.071-3.557s1.711-1.785 2.991-2.324c1.28-0.552 2.789-0.829 4.527-0.829 1.698 0 3.2 0.263 4.507 0.788 1.32 0.525 2.385 1.273 3.193 2.243s1.307 2.109 1.496 3.416l-4.972 0.889c-0.121-0.93-0.546-1.664-1.273-2.203-0.714-0.539-1.671-0.842-2.87-0.909-1.145-0.067-2.068 0.108-2.769 0.525-0.701 0.404-1.051 0.977-1.051 1.718 0 0.418 0.141 0.775 0.424 1.071s0.849 0.593 1.698 0.889c0.862 0.296 2.142 0.66 3.84 1.091 1.738 0.445 3.126 0.957 4.163 1.536 1.051 0.566 1.805 1.246 2.264 2.041 0.472 0.795 0.707 1.758 0.707 2.89 0 2.196-0.802 3.921-2.405 5.174-1.59 1.253-3.793 1.88-6.609 1.88z"></path>
</symbol>
<symbol id="icon-heart-transparent" viewBox="0 0 32 32">
<path fill="none" stroke="#4440f7" style="stroke: var(--color1, #4440f7)" stroke-linejoin="round" stroke-linecap="round" stroke-miterlimit="4" stroke-width="2" d="M9.331 4c-3.681 0-6.667 2.955-6.667 6.6 0 2.943 1.167 9.927 12.651 16.987 0.206 0.125 0.442 0.191 0.683 0.191s0.477-0.066 0.683-0.191c11.484-7.060 12.651-14.044 12.651-16.987 0-3.645-2.985-6.6-6.667-6.6s-6.667 4-6.667 4-2.985-4-6.667-4z"></path>
</symbol>
<symbol id="icon-heart-filled" viewBox="0 0 32 32">
<path fill="#4b48da" style="fill: var(--color1, #4b48da)" d="M9.331 4c-3.681 0-6.667 2.955-6.667 6.6 0 2.943 1.167 9.927 12.651 16.987 0.206 0.125 0.442 0.191 0.683 0.191s0.477-0.066 0.683-0.191c11.484-7.060 12.651-14.044 12.651-16.987 0-3.645-2.985-6.6-6.667-6.6s-6.667 4-6.667 4-2.985-4-6.667-4z"></path>
</symbol>
<symbol id="icon-home" viewBox="0 0 32 32">
<path fill="#4440f6" style="fill: var(--color1, #4440f6)" d="M32 16c0 8.837-7.163 16-16 16s-16-7.163-16-16c0-8.837 7.163-16 16-16s16 7.163 16 16z"></path>
<path fill="none" stroke="#f4f4f4" style="stroke: var(--color1, #f4f4f4)" stroke-linejoin="miter" stroke-linecap="butt" stroke-miterlimit="4" stroke-width="1" d="M31.5 16c0 8.56-6.94 15.5-15.5 15.5s-15.5-6.94-15.5-15.5c0-8.56 6.94-15.5 15.5-15.5s15.5 6.94 15.5 15.5z"></path>
<path fill="none" stroke="#f4f4f4" style="stroke: var(--color1, #f4f4f4)" stroke-linejoin="round" stroke-linecap="round" stroke-miterlimit="4" stroke-width="1" d="M9.25 13.75l6.75-5.25 6.75 5.25v8.25c0 0.398-0.158 0.779-0.439 1.061s-0.663 0.439-1.061 0.439h-10.5c-0.398 0-0.779-0.158-1.061-0.439s-0.439-0.663-0.439-1.061v-8.25z"></path>
<path fill="none" stroke="#f4f4f4" style="stroke: var(--color1, #f4f4f4)" stroke-linejoin="round" stroke-linecap="round" stroke-miterlimit="4" stroke-width="1" d="M13.75 23.5v-7.5h4.5v7.5"></path>
</symbol>
<symbol id="icon-read" viewBox="0 0 32 32">
<path fill="#4440f6" style="fill: var(--color1, #4440f6)" d="M32 16c0 8.837-7.163 16-16 16s-16-7.163-16-16c0-8.837 7.163-16 16-16s16 7.163 16 16z"></path>
<path fill="none" stroke="#f4f4f4" style="stroke: var(--color2, #f4f4f4)" stroke-linejoin="round" stroke-linecap="round" stroke-miterlimit="4" stroke-width="1" d="M8.5 9.25h4.5c0.796 0 1.559 0.316 2.121 0.879s0.879 1.326 0.879 2.121v10.5c0-0.597-0.237-1.169-0.659-1.591s-0.994-0.659-1.591-0.659h-5.25v-11.25z"></path>
<path fill="none" stroke="#f4f4f4" style="stroke: var(--color1, #f4f4f4)" stroke-linejoin="miter" stroke-linecap="butt" stroke-miterlimit="4" stroke-width="1" d="M31.5 16c0 8.56-6.94 15.5-15.5 15.5s-15.5-6.94-15.5-15.5c0-8.56 6.94-15.5 15.5-15.5s15.5 6.94 15.5 15.5z"></path>
<path fill="none" stroke="#f4f4f4" style="stroke: var(--color2, #f4f4f4)" stroke-linejoin="round" stroke-linecap="round" stroke-miterlimit="4" stroke-width="1" d="M23.5 9.25h-4.5c-0.796 0-1.559 0.316-2.121 0.879s-0.879 1.326-0.879 2.121v10.5c0-0.597 0.237-1.169 0.659-1.591s0.994-0.659 1.591-0.659h5.25v-11.25z"></path>
</symbol>
<symbol id="icon-heart-menu" viewBox="0 0 32 32">
<path fill="#4440f6" style="fill: var(--color1, #4440f6)" d="M32 16c0 8.837-7.163 16-16 16s-16-7.163-16-16c0-8.837 7.163-16 16-16s16 7.163 16 16z"></path>
<path fill="none" stroke="#f4f4f4" style="stroke: var(--color1, #f4f4f4)" stroke-linejoin="miter" stroke-linecap="butt" stroke-miterlimit="4" stroke-width="1" d="M31.5 16c0 8.56-6.94 15.5-15.5 15.5s-15.5-6.94-15.5-15.5c0-8.56 6.94-15.5 15.5-15.5s15.5 6.94 15.5 15.5z"></path>
<path fill="none" stroke="#f4f4f4" style="stroke: var(--color2, #f4f4f4)" stroke-linejoin="round" stroke-linecap="round" stroke-miterlimit="4" stroke-width="1" d="M22.631 10.457c-0.383-0.383-0.838-0.687-1.338-0.895s-1.037-0.314-1.579-0.314c-0.542 0-1.078 0.107-1.579 0.314s-0.956 0.511-1.338 0.895l-0.795 0.795-0.795-0.795c-0.774-0.774-1.823-1.208-2.918-1.208s-2.144 0.435-2.918 1.208c-0.774 0.774-1.208 1.823-1.208 2.918s0.435 2.144 1.208 2.918l6.63 6.63 6.63-6.63c0.383-0.383 0.687-0.838 0.895-1.338s0.314-1.037 0.314-1.579c0-0.542-0.107-1.078-0.314-1.579s-0.512-0.955-0.895-1.338v0z"></path>
</symbol>
<symbol id="icon-sun-active" viewBox="0 0 32 32">
<path fill="none" stroke="#4b48db" style="stroke: var(--color1, #4b48db)" stroke-linejoin="round" stroke-linecap="round" stroke-miterlimit="4" stroke-width="2.2857" d="M15.999 1.778v2.586M15.999 27.636v2.586M5.94 5.941l1.836 1.836M24.222 24.223l1.836 1.836M1.777 16h2.586M27.635 16h2.586M5.94 26.059l1.836-1.836M24.222 7.777l1.836-1.836M22.464 16c0 3.57-2.894 6.465-6.465 6.465s-6.465-2.894-6.465-6.465c0-3.57 2.894-6.465 6.465-6.465s6.465 2.894 6.465 6.465z"></path>
</symbol>
<symbol id="icon-themeSwitcher-light" viewBox="0 0 61 32">
<path fill="#fff" style="fill: var(--color1, #fff)" d="M15.238 1.223h30.476c8.161 0 14.777 6.616 14.777 14.777s-6.616 14.777-14.777 14.777h-30.476c-8.161 0-14.777-6.616-14.777-14.777s6.616-14.777 14.777-14.777z"></path>
<path fill="#4b48db" style="fill: var(--color2, #4b48db)" d="M25.905 16c0 6.733-5.458 12.19-12.19 12.19s-12.19-5.458-12.19-12.19c0-6.733 5.458-12.19 12.19-12.19s12.19 5.458 12.19 12.19z"></path>
<path fill="none" stroke="#4b48db" style="stroke: var(--color2, #4b48db)" stroke-linejoin="miter" stroke-linecap="butt" stroke-miterlimit="4" stroke-width="0.9214" d="M15.238 1.223h30.476c8.161 0 14.777 6.616 14.777 14.777s-6.616 14.777-14.777 14.777h-30.476c-8.161 0-14.777-6.616-14.777-14.777s6.616-14.777 14.777-14.777z"></path>
</symbol>
<symbol id="icon-moon" viewBox="0 0 32 32">
<path fill="none" stroke="#5f6775" style="stroke: var(--color1, #5f6775)" stroke-linejoin="round" stroke-linecap="round" stroke-miterlimit="4" stroke-width="2.2857" d="M28 17.053c-0.21 2.27-1.061 4.433-2.456 6.236s-3.273 3.172-5.417 3.946c-2.144 0.774-4.464 0.922-6.688 0.426s-4.262-1.615-5.874-3.227c-1.612-1.612-2.731-3.649-3.227-5.874s-0.348-4.544 0.426-6.688 2.143-4.023 3.946-5.417c1.803-1.394 3.966-2.246 6.236-2.456-1.329 1.798-1.968 4.013-1.802 6.242s1.127 4.325 2.708 5.906c1.581 1.581 3.676 2.542 5.906 2.708s4.444-0.473 6.242-1.802v0z"></path>
</symbol>
<symbol id="icon-themeSwitcher-dark" viewBox="0 0 61 32">
<path fill="#4b48db" style="fill: var(--color1, #4b48db)" d="M15.238 1.524h30.476c7.995 0 14.476 6.481 14.476 14.476s-6.481 14.476-14.476 14.476h-30.476c-7.995 0-14.476-6.481-14.476-14.476s6.481-14.476 14.476-14.476z"></path>
<path fill="#fff" style="fill: var(--color2, #fff)" d="M57.905 16c0 6.733-5.458 12.19-12.19 12.19s-12.19-5.458-12.19-12.19c0-6.733 5.458-12.19 12.19-12.19s12.19 5.458 12.19 12.19z"></path>
<path fill="none" stroke="#fff" style="stroke: var(--color2, #fff)" stroke-linejoin="miter" stroke-linecap="butt" stroke-miterlimit="4" stroke-width="1.5238" d="M15.238 1.524h30.476c7.995 0 14.476 6.481 14.476 14.476s-6.481 14.476-14.476 14.476h-30.476c-7.995 0-14.476-6.481-14.476-14.476s6.481-14.476 14.476-14.476z"></path>
</symbol>
<symbol id="icon-pagination-previous" viewBox="0 0 32 32">
<path d="M14.437 16l6.6 6.6-1.885 1.885-8.485-8.485 8.485-8.485 1.885 1.885-6.6 6.6z"></path>
</symbol>
<symbol id="icon-pagination-next" viewBox="0 0 32 32">
<path d="M16.001 16l-3.556-3.555 1.777-1.779 5.334 5.333-5.334 5.333-1.777-1.779 3.556-3.555z"></path>
</symbol>
<symbol id="icon-read-closed" viewBox="0 0 50 32">
<path d="M5.849 0l-5.849 6.089 24.889 25.911 24.889-25.911-5.849-6.089-19.040 19.779-19.040-19.779z"></path>
</symbol>
<symbol id="icon-read-opened" viewBox="0 0 53 32">
<path d="M8.759 32l-5.849-6.089 24.889-25.911 24.889 25.911-5.849 6.089-19.040-19.779-19.040 19.779z"></path>
</symbol>
<symbol id="icon-mobileMenu-rightArrow" viewBox="0 0 32 32">
<path fill="none" stroke="#f4f4f4" style="stroke: var(--color1, #f4f4f4)" stroke-linejoin="round" stroke-linecap="round" stroke-miterlimit="4" stroke-width="2.6667" d="M12 24l8-8-8-8"></path>
</symbol>
<symbol id="icon-categoriesList-closed" viewBox="0 0 32 32">
<path fill="#fff" style="fill: var(--color1, #fff)" d="M4.576 5.333l-3.509 3.247 14.933 13.819 14.933-13.819-3.509-3.248-11.424 10.549-11.424-10.549z"></path>
</symbol>
<symbol id="icon-categoriesList-opened" viewBox="0 0 30 32">
<path fill="#fff" style="fill: var(--color1, #fff)" d="M3.509 22.4l-3.509-3.247 14.933-13.819 14.933 13.819-3.509 3.247-11.424-10.549-11.424 10.549z"></path>
</symbol>
<symbol id="icon-calendarArrow-opened" viewBox="0 0 53 32">
<path fill="#a2a2a2" style="fill: var(--color1, #a2a2a2)" d="M6.267 0l-6.267 6.089 26.667 25.911 26.667-25.911-6.267-6.089-20.4 19.779-20.4-19.779z"></path>
</symbol>
<symbol id="icon-calendarArrow-closed" viewBox="0 0 53 32">
<path fill="#fff" style="fill: var(--color1, #fff)" d="M6.267 32l-6.267-6.089 26.667-25.911 26.667 25.911-6.267 6.089-20.4-19.779-20.4 19.779z"></path>
</symbol>
<symbol id="icon-alreadyRead-mark" viewBox="0 0 32 32">
<path fill="#00dd73" style="fill: var(--color1, #00dd73)" d="M28.78 6.39c-0.277 0.008-0.54 0.124-0.733 0.323l-16.313 16.313-6.713-6.713c-0.098-0.102-0.216-0.184-0.346-0.24s-0.27-0.086-0.412-0.088c-0.142-0.001-0.283 0.025-0.414 0.079s-0.251 0.133-0.351 0.233c-0.1 0.1-0.18 0.22-0.233 0.351s-0.081 0.272-0.079 0.414c0.001 0.142 0.031 0.282 0.087 0.412s0.138 0.248 0.24 0.346l7.467 7.467c0.2 0.2 0.471 0.312 0.754 0.312s0.554-0.112 0.754-0.312l17.067-17.067c0.154-0.15 0.259-0.343 0.302-0.553s0.021-0.429-0.063-0.627c-0.084-0.198-0.225-0.366-0.406-0.482s-0.393-0.175-0.607-0.168z"></path>
</symbol>
<symbol id="icon-calendar" viewBox="0 0 32 32">
<path fill="#4440f7" style="fill: var(--color1, #4440f7)" d="M22.667 4h5.333c0.354 0 0.693 0.14 0.943 0.391s0.391 0.589 0.391 0.943v21.333c0 0.354-0.14 0.693-0.391 0.943s-0.589 0.39-0.943 0.39h-24c-0.354 0-0.693-0.14-0.943-0.39s-0.391-0.589-0.391-0.943v-21.333c0-0.354 0.14-0.693 0.391-0.943s0.589-0.391 0.943-0.391h5.333v-2.667h2.667v2.667h8v-2.667h2.667v2.667zM26.667 14.667h-21.333v10.667h21.333v-10.667zM20 6.667h-8v2.667h-2.667v-2.667h-4v5.333h21.333v-5.333h-4v2.667h-2.667v-2.667zM8.001 17.333h2.667v2.667h-2.667v-2.667zM14.667 17.333h2.667v2.667h-2.667v-2.667zM21.334 17.333h2.667v2.667h-2.667v-2.667z"></path>
</symbol>
</defs>
</svg>
